Rokkitt-Bold.ufo
<glyph name="parenright" format="1">
  <advance width="645"/>
  <unicode hex="0029"/>
  <outline>
    <contour>
      <point x="593" y="487" type="curve" smooth="yes"/>
      <point x="593" y="832"/>
      <point x="392" y="1041"/>
      <point x="134" y="1130" type="curve"/>
      <point x="133" y="991" type="line"/>
      <point x="315" y="913"/>
      <point x="422" y="770"/>
      <point x="422" y="487" type="curve" smooth="yes"/>
      <point x="422" y="200"/>
      <point x="313" y="59"/>
      <point x="133" y="-18" type="curve"/>
      <point x="134" y="-158" type="line"/>
      <point x="392" y="-71"/>
      <point x="593" y="140"/>
    </contour>
  </outline>
</glyph>
<glyph name="four" format="1">
  <advance width="973"/>
  <unicode hex="0034"/>
  <outline>
    <contour>
      <point x="35" y="334" type="line"/>
      <point x="526" y="334" type="line"/>
      <point x="526" y="141" type="line"/>
      <point x="371" y="141" type="line"/>
      <point x="371" y="0" type="line"/>
      <point x="842" y="0" type="line"/>
      <point x="842" y="141" type="line"/>
      <point x="707" y="141" type="line"/>
      <point x="707" y="334" type="line"/>
      <point x="883" y="334" type="line"/>
      <point x="883" y="470" type="line"/>
      <point x="707" y="470" type="line"/>
      <point x="707" y="1215" type="line"/>
      <point x="529" y="1215" type="line"/>
      <point x="35" y="498" type="line"/>
    </contour>
    <contour>
      <point x="194" y="470" type="line"/>
      <point x="526" y="977" type="line"/>
      <point x="526" y="470" type="line"/>
    </contour>
  </outline>
</glyph>
<glyph name="question" format="1">
  <advance width="851"/>
  <unicode hex="003F"/>
  <outline>
    <contour>
      <point x="234" y="889" type="line"/>
      <point x="234" y="1022"/>
      <point x="301" y="1098"/>
      <point x="436" y="1098" type="curve" smooth="yes"/>
      <point x="535" y="1098"/>
      <point x="615" y="1025"/>
      <point x="615" y="914" type="curve" smooth="yes"/>
      <point x="615" y="693"/>
      <point x="317" y="800"/>
      <point x="317" y="340" type="curve"/>
      <point x="456" y="340" type="line"/>
      <point x="477" y="719"/>
      <point x="794" y="601"/>
      <point x="794" y="914" type="curve" smooth="yes"/>
      <point x="794" y="1108"/>
      <point x="635" y="1233"/>
      <point x="434" y="1233" type="curve" smooth="yes"/>
      <point x="244" y="1233"/>
      <point x="61" y="1144"/>
      <point x="61" y="889" type="curve"/>
    </contour>
    <contour>
      <point x="294" y="209" type="line"/>
      <point x="294" y="0" type="line"/>
      <point x="489" y="0" type="line"/>
      <point x="489" y="209" type="line"/>
    </contour>
  </outline>
</glyph>
<glyph name="D" format="1">
  <advance width="1488"/>
  <unicode hex="0044"/>
  <outline>
    <contour>
      <point x="125" y="1215" type="line"/>
      <point x="125" y="1075" type="line"/>
      <point x="298" y="1075" type="line"/>
      <point x="298" y="141" type="line"/>
      <point x="125" y="141" type="line"/>
      <point x="125" y="0" type="line"/>
      <point x="725" y="0" type="line" smooth="yes"/>
      <point x="1150" y="0"/>
      <point x="1364" y="236"/>
      <point x="1364" y="615" type="curve" smooth="yes"/>
      <point x="1364" y="952"/>
      <point x="1159" y="1215"/>
      <point x="726" y="1215" type="curve" smooth="yes"/>
    </contour>
    <contour>
      <point x="714" y="1075" type="line" smooth="yes"/>
      <point x="1015" y="1075"/>
      <point x="1138" y="877"/>
      <point x="1138" y="609" type="curve" smooth="yes"/>
      <point x="1138" y="339"/>
      <point x="1019" y="141"/>
      <point x="706" y="141" type="curve" smooth="yes"/>
      <point x="517" y="141" type="line"/>
      <point x="517" y="1075" type="line"/>
    </contour>
    <contour>
      <point x="652" y="1215" type="move" name="top"/>
    </contour>
    <contour>
      <point x="414" y="660" type="move" name="mid"/>
    </contour>
  </outline>
</glyph>
<glyph name="O" format="1">
  <advance width="1538"/>
  <unicode hex="004F"/>
  <outline>
    <contour>
      <point x="768" y="1075" type="curve" smooth="yes"/>
      <point x="1011" y="1075"/>
      <point x="1175" y="873"/>
      <point x="1175" y="606" type="curve" smooth="yes"/>
      <point x="1175" y="335"/>
      <point x="1004" y="141"/>
      <point x="767" y="141" type="curve" smooth="yes"/>
      <point x="523" y="141"/>
      <point x="361" y="346"/>
      <point x="361" y="605" type="curve" smooth="yes"/>
      <point x="361" y="883"/>
      <point x="535" y="1075"/>
    </contour>
    <contour>
      <point x="768" y="-19" type="curve" smooth="yes"/>
      <point x="1178" y="-19"/>
      <point x="1414" y="267"/>
      <point x="1414" y="606" type="curve" smooth="yes"/>
      <point x="1414" y="950"/>
      <point x="1177" y="1233"/>
      <point x="767" y="1233" type="curve" smooth="yes"/>
      <point x="360" y="1233"/>
      <point x="124" y="952"/>
      <point x="124" y="607" type="curve" smooth="yes"/>
      <point x="124" y="265"/>
      <point x="356" y="-19"/>
    </contour>
    <contour>
      <point x="765" y="1215" type="move" name="top"/>
    </contour>
    <contour>
      <point x="873" y="0" type="move" name="ogonek"/>
    </contour>
  </outline>
</glyph>
<glyph name="W" format="1">
  <advance width="1935"/>
  <unicode hex="0057"/>
  <outline>
    <contour>
      <point x="1423" y="0" type="line"/>
      <point x="1754" y="1075" type="line"/>
      <point x="1897" y="1075" type="line"/>
      <point x="1897" y="1215" type="line"/>
      <point x="1435" y="1215" type="line"/>
      <point x="1435" y="1075" type="line"/>
      <point x="1579" y="1075" type="line"/>
      <point x="1343" y="282" type="line"/>
      <point x="1106" y="1075" type="line"/>
      <point x="1233" y="1075" type="line"/>
      <point x="1233" y="1215" type="line"/>
      <point x="729" y="1215" type="line"/>
      <point x="729" y="1075" type="line"/>
      <point x="859" y="1075" type="line"/>
      <point x="627" y="282" type="line"/>
      <point x="389" y="1075" type="line"/>
      <point x="532" y="1075" type="line"/>
      <point x="532" y="1215" type="line"/>
      <point x="38" y="1215" type="line"/>
      <point x="38" y="1075" type="line"/>
      <point x="183" y="1075" type="line"/>
      <point x="522" y="0" type="line"/>
      <point x="703" y="0" type="line"/>
      <point x="969" y="879" type="line"/>
      <point x="1239" y="0" type="line"/>
    </contour>
    <contour>
      <point x="986" y="1215" type="move" name="top"/>
    </contour>
  </outline>
</glyph>
<glyph name="Y" format="1">
  <advance width="1337"/>
  <unicode hex="0059"/>
  <outline>
    <contour>
      <point x="200" y="1075" type="line"/>
      <point x="564" y="549" type="line"/>
      <point x="564" y="141" type="line"/>
      <point x="397" y="141" type="line"/>
      <point x="397" y="0" type="line"/>
      <point x="953" y="0" type="line"/>
      <point x="953" y="141" type="line"/>
      <point x="782" y="141" type="line"/>
      <point x="782" y="550" type="line"/>
      <point x="1130" y="1075" type="line"/>
      <point x="1289" y="1075" type="line"/>
      <point x="1289" y="1215" type="line"/>
      <point x="795" y="1215" type="line"/>
      <point x="795" y="1075" type="line"/>
      <point x="937" y="1075" type="line"/>
      <point x="694" y="686" type="line"/>
      <point x="436" y="1075" type="line"/>
      <point x="579" y="1075" type="line"/>
      <point x="579" y="1215" type="line"/>
      <point x="48" y="1215" type="line"/>
      <point x="48" y="1075" type="line"/>
    </contour>
    <contour>
      <point x="694" y="1215" type="move" name="top"/>
    </contour>
  </outline>
</glyph>
<glyph name="Z" format="1">
  <advance width="1256"/>
  <unicode hex="005A"/>
  <outline>
    <contour>
      <point x="1096" y="1081" type="line"/>
      <point x="1096" y="1215" type="line"/>
      <point x="195" y="1215" type="line"/>
      <point x="195" y="855" type="line"/>
      <point x="354" y="855" type="line"/>
      <point x="354" y="1075" type="line"/>
      <point x="827" y="1075" type="line"/>
      <point x="163" y="151" type="line"/>
      <point x="163" y="0" type="line"/>
      <point x="1106" y="0" type="line"/>
      <point x="1106" y="375" type="line"/>
      <point x="948" y="375" type="line"/>
      <point x="948" y="141" type="line"/>
      <point x="423" y="141" type="line"/>
    </contour>
    <contour>
      <point x="686" y="1215" type="move" name="top"/>
    </contour>
  </outline>
</glyph>
<glyph name="backslash" format="1">
  <advance width="773"/>
  <unicode hex="005C"/>
  <outline>
    <contour>
      <point x="190" y="1224" type="line"/>
      <point x="19" y="1224" type="line"/>
      <point x="583" y="-19" type="line"/>
      <point x="754" y="-19" type="line"/>
    </contour>
  </outline>
</glyph>
<glyph name="h" format="1">
  <advance width="1220"/>
  <unicode hex="0068"/>
  <outline>
    <contour>
      <point x="465" y="1215" type="line"/>
      <point x="118" y="1215" type="line"/>
      <point x="118" y="1075" type="line"/>
      <point x="267" y="1075" type="line"/>
      <point x="267" y="141" type="line"/>
      <point x="116" y="141" type="line"/>
      <point x="116" y="0" type="line"/>
      <point x="588" y="0" type="line"/>
      <point x="588" y="141" type="line"/>
      <point x="465" y="141" type="line"/>
      <point x="465" y="596" type="line"/>
      <point x="536" y="665"/>
      <point x="626" y="711"/>
      <point x="695" y="711" type="curve" smooth="yes"/>
      <point x="793" y="711"/>
      <point x="833" y="644"/>
      <point x="833" y="553" type="curve" smooth="yes"/>
      <point x="833" y="141" type="line"/>
      <point x="728" y="141" type="line"/>
      <point x="728" y="0" type="line"/>
      <point x="1159" y="0" type="line"/>
      <point x="1159" y="141" type="line"/>
      <point x="1030" y="141" type="line"/>
      <point x="1030" y="591" type="line" smooth="yes"/>
      <point x="1030" y="764"/>
      <point x="927" y="866"/>
      <point x="753" y="866" type="curve" smooth="yes"/>
      <point x="653" y="866"/>
      <point x="555" y="823"/>
      <point x="465" y="747" type="curve"/>
    </contour>
    <contour>
      <point x="357" y="935" type="move" name="mid"/>
    </contour>
  </outline>
</glyph>
<glyph name="i" format="1">
  <advance width="688"/>
  <unicode hex="0069"/>
  <outline>
    <contour>
      <point x="491" y="1179"/>
      <point x="441" y="1227"/>
      <point x="376" y="1227" type="curve" smooth="yes"/>
      <point x="313" y="1227"/>
      <point x="263" y="1179"/>
      <point x="263" y="1119" type="curve" smooth="yes"/>
      <point x="263" y="1058"/>
      <point x="313" y="1011"/>
      <point x="376" y="1011" type="curve" smooth="yes"/>
      <point x="441" y="1011"/>
      <point x="491" y="1058"/>
      <point x="491" y="1119" type="curve" smooth="yes"/>
    </contour>
    <contour>
      <point x="134" y="849" type="line"/>
      <point x="134" y="709" type="line"/>
      <point x="279" y="709" type="line"/>
      <point x="279" y="141" type="line"/>
      <point x="134" y="141" type="line"/>
      <point x="134" y="0" type="line"/>
      <point x="612" y="0" type="line"/>
      <point x="612" y="141" type="line"/>
      <point x="475" y="141" type="line"/>
      <point x="475" y="849" type="line"/>
    </contour>
  </outline>
</glyph>
<glyph name="m" format="1">
  <advance width="1782"/>
  <unicode hex="006D"/>
  <outline>
    <contour>
      <point x="121" y="849" type="line"/>
      <point x="121" y="709" type="line"/>
      <point x="273" y="709" type="line"/>
      <point x="273" y="141" type="line"/>
      <point x="116" y="141" type="line"/>
      <point x="116" y="0" type="line"/>
      <point x="596" y="0" type="line"/>
      <point x="596" y="141" type="line"/>
      <point x="470" y="141" type="line"/>
      <point x="470" y="593" type="line"/>
      <point x="557" y="667"/>
      <point x="622" y="711"/>
      <point x="703" y="711" type="curve" smooth="yes"/>
      <point x="801" y="711"/>
      <point x="833" y="650"/>
      <point x="833" y="523" type="curve" smooth="yes"/>
      <point x="833" y="141" type="line"/>
      <point x="724" y="141" type="line"/>
      <point x="724" y="0" type="line"/>
      <point x="1156" y="0" type="line"/>
      <point x="1156" y="141" type="line"/>
      <point x="1031" y="141" type="line"/>
      <point x="1031" y="588" type="line"/>
      <point x="1090" y="650"/>
      <point x="1180" y="711"/>
      <point x="1264" y="711" type="curve" smooth="yes"/>
      <point x="1365" y="711"/>
      <point x="1395" y="642"/>
      <point x="1395" y="528" type="curve" smooth="yes"/>
      <point x="1395" y="137" type="line"/>
      <point x="1279" y="137" type="line"/>
      <point x="1279" y="0" type="line"/>
      <point x="1721" y="0" type="line"/>
      <point x="1721" y="137" type="line"/>
      <point x="1590" y="137" type="line"/>
      <point x="1590" y="595" type="line" smooth="yes"/>
      <point x="1590" y="761"/>
      <point x="1494" y="866"/>
      <point x="1325" y="866" type="curve" smooth="yes"/>
      <point x="1211" y="866"/>
      <point x="1119" y="817"/>
      <point x="1001" y="726" type="curve"/>
      <point x="955" y="816"/>
      <point x="875" y="866"/>
      <point x="761" y="866" type="curve" smooth="yes"/>
      <point x="659" y="866"/>
      <point x="564" y="819"/>
      <point x="470" y="743" type="curve"/>
      <point x="470" y="743"/>
      <point x="468" y="812"/>
      <point x="468" y="849" type="curve"/>
    </contour>
  </outline>
</glyph>
<glyph name="p" format="1">
  <advance width="1206"/>
  <unicode hex="0070"/>
  <outline>
    <contour>
      <point x="214" y="-180" type="line"/>
      <point x="67" y="-180" type="line"/>
      <point x="67" y="-330" type="line"/>
      <point x="578" y="-330" type="line"/>
      <point x="578" y="-180" type="line"/>
      <point x="410" y="-180" type="line"/>
      <point x="410" y="93" type="line"/>
      <point x="482" y="19"/>
      <point x="579" y="-19"/>
      <point x="687" y="-19" type="curve" smooth="yes"/>
      <point x="914" y="-19"/>
      <point x="1092" y="159"/>
      <point x="1092" y="428" type="curve" smooth="yes"/>
      <point x="1092" y="674"/>
      <point x="934" y="866"/>
      <point x="688" y="866" type="curve" smooth="yes"/>
      <point x="576" y="866"/>
      <point x="493" y="827"/>
      <point x="410" y="746" type="curve"/>
      <point x="407" y="849" type="line"/>
      <point x="67" y="849" type="line"/>
      <point x="67" y="709" type="line"/>
      <point x="214" y="709" type="line"/>
    </contour>
    <contour>
      <point x="804" y="711"/>
      <point x="889" y="586"/>
      <point x="889" y="419" type="curve" smooth="yes"/>
      <point x="889" y="256"/>
      <point x="806" y="137"/>
      <point x="646" y="137" type="curve" smooth="yes"/>
      <point x="522" y="137"/>
      <point x="435" y="222"/>
      <point x="410" y="245" type="curve"/>
      <point x="410" y="590" type="line"/>
      <point x="431" y="614"/>
      <point x="519" y="711"/>
      <point x="645" y="711" type="curve" smooth="yes"/>
    </contour>
    <contour>
      <point x="678" y="849" type="move" name="top"/>
    </contour>
  </outline>
</glyph>
<glyph name="q" format="1">
  <advance width="1220"/>
  <unicode hex="0071"/>
  <outline>
    <contour>
      <point x="625" y="-181" type="line"/>
      <point x="625" y="-330" type="line"/>
      <point x="1136" y="-330" type="line"/>
      <point x="1136" y="-181" type="line"/>
      <point x="989" y="-181" type="line"/>
      <point x="989" y="709" type="line"/>
      <point x="1136" y="709" type="line"/>
      <point x="1136" y="849" type="line"/>
      <point x="793" y="849" type="line"/>
      <point x="791" y="746" type="line"/>
      <point x="712" y="827"/>
      <point x="635" y="866"/>
      <point x="526" y="866" type="curve" smooth="yes"/>
      <point x="273" y="866"/>
      <point x="114" y="674"/>
      <point x="114" y="429" type="curve" smooth="yes"/>
      <point x="114" y="158"/>
      <point x="298" y="-19"/>
      <point x="526" y="-19" type="curve" smooth="yes"/>
      <point x="635" y="-19"/>
      <point x="719" y="19"/>
      <point x="791" y="94" type="curve"/>
      <point x="791" y="-181" type="line"/>
    </contour>
    <contour>
      <point x="396" y="137"/>
      <point x="317" y="256"/>
      <point x="317" y="419" type="curve" smooth="yes"/>
      <point x="317" y="586"/>
      <point x="393" y="711"/>
      <point x="560" y="711" type="curve" smooth="yes"/>
      <point x="681" y="711"/>
      <point x="770" y="613"/>
      <point x="791" y="587" type="curve"/>
      <point x="791" y="253" type="line"/>
      <point x="768" y="228"/>
      <point x="678" y="137"/>
      <point x="555" y="137" type="curve" smooth="yes"/>
    </contour>
  </outline>
</glyph>
<glyph name="s" format="1">
  <advance width="990"/>
  <unicode hex="0073"/>
  <outline>
    <contour>
      <point x="551" y="-22" type="line"/>
      <point x="757" y="-22"/>
      <point x="885" y="80"/>
      <point x="885" y="227" type="curve" smooth="yes"/>
      <point x="885" y="407"/>
      <point x="746" y="466"/>
      <point x="607" y="501" type="curve" smooth="yes"/>
      <point x="468" y="536"/>
      <point x="329" y="547"/>
      <point x="329" y="631" type="curve" smooth="yes"/>
      <point x="329" y="692"/>
      <point x="390" y="728"/>
      <point x="488" y="728" type="curve" smooth="yes"/>
      <point x="576" y="728"/>
      <point x="634" y="701"/>
      <point x="675" y="653" type="curve"/>
      <point x="675" y="584" type="line"/>
      <point x="837" y="584" type="line"/>
      <point x="837" y="848" type="line"/>
      <point x="675" y="848" type="line"/>
      <point x="675" y="795" type="line"/>
      <point x="622" y="842"/>
      <point x="544" y="865"/>
      <point x="466" y="865" type="curve" smooth="yes"/>
      <point x="277" y="865"/>
      <point x="152" y="757"/>
      <point x="152" y="620" type="curve" smooth="yes"/>
      <point x="152" y="448"/>
      <point x="290" y="393"/>
      <point x="428" y="359" type="curve" smooth="yes"/>
      <point x="566" y="325"/>
      <point x="704" y="312"/>
      <point x="704" y="224" type="curve" smooth="yes"/>
      <point x="704" y="155"/>
      <point x="640" y="119"/>
      <point x="527" y="119" type="curve" smooth="yes"/>
      <point x="432" y="119"/>
      <point x="355" y="154"/>
      <point x="318" y="216" type="curve"/>
      <point x="318" y="283" type="line"/>
      <point x="162" y="283" type="line"/>
      <point x="162" y="0" type="line"/>
      <point x="318" y="0" type="line"/>
      <point x="318" y="51" type="line"/>
      <point x="377" y="3"/>
      <point x="446" y="-19"/>
      <point x="551" y="-19" type="curve"/>
    </contour>
    <contour>
      <point x="539" y="0" type="move" name="bot"/>
    </contour>
    <contour>
      <point x="487" y="849" type="move" name="top"/>
    </contour>
  </outline>
</glyph>
<glyph name="w" format="1">
  <advance width="1503"/>
  <unicode hex="0077"/>
  <outline>
    <contour>
      <point x="652" y="709" type="line"/>
      <point x="496" y="201" type="line"/>
      <point x="339" y="709" type="line"/>
      <point x="427" y="709" type="line"/>
      <point x="427" y="849" type="line"/>
      <point x="53" y="849" type="line"/>
      <point x="53" y="709" type="line"/>
      <point x="146" y="709" type="line"/>
      <point x="391" y="0" type="line"/>
      <point x="576" y="0" type="line"/>
      <point x="754" y="547" type="line"/>
      <point x="934" y="0" type="line"/>
      <point x="1119" y="0" type="line"/>
      <point x="1352" y="709" type="line"/>
      <point x="1450" y="709" type="line"/>
      <point x="1450" y="849" type="line"/>
      <point x="1076" y="849" type="line"/>
      <point x="1076" y="709" type="line"/>
      <point x="1174" y="709" type="line"/>
      <point x="1029" y="197" type="line"/>
      <point x="865" y="709" type="line"/>
      <point x="965" y="709" type="line"/>
      <point x="965" y="849" type="line"/>
      <point x="551" y="849" type="line"/>
      <point x="551" y="709" type="line"/>
    </contour>
    <contour>
      <point x="763" y="849" type="move" name="top"/>
    </contour>
  </outline>
</glyph>
<glyph name="guillemetleft" format="1">
  <advance width="1109"/>
  <unicode hex="00AB"/>
  <outline>
    <contour>
      <point x="499" y="552" type="line"/>
      <point x="812" y="143" type="line"/>
      <point x="956" y="143" type="line"/>
      <point x="749" y="553" type="line"/>
      <point x="956" y="963" type="line"/>
      <point x="812" y="963" type="line"/>
    </contour>
    <contour>
      <point x="81" y="552" type="line"/>
      <point x="394" y="143" type="line"/>
      <point x="538" y="143" type="line"/>
      <point x="331" y="553" type="line"/>
      <point x="538" y="963" type="line"/>
      <point x="394" y="963" type="line"/>
    </contour>
  </outline>
</glyph>
<glyph name="threesuperior" format="1">
  <advance width="957"/>
  <unicode hex="00B3"/>
  <outline>
    <contour>
      <point x="177" y="606" type="line"/>
      <point x="181" y="420"/>
      <point x="299" y="331"/>
      <point x="474" y="331" type="curve" smooth="yes"/>
      <point x="673" y="331"/>
      <point x="796" y="436"/>
      <point x="796" y="592" type="curve" smooth="yes"/>
      <point x="796" y="700"/>
      <point x="733" y="776"/>
      <point x="613" y="805" type="curve"/>
      <point x="710" y="834"/>
      <point x="762" y="912"/>
      <point x="762" y="999" type="curve" smooth="yes"/>
      <point x="762" y="1148"/>
      <point x="650" y="1234"/>
      <point x="475" y="1234" type="curve" smooth="yes"/>
      <point x="314" y="1234"/>
      <point x="212" y="1142"/>
      <point x="206" y="997" type="curve"/>
      <point x="335" y="989" type="line"/>
      <point x="338" y="1065"/>
      <point x="376" y="1122"/>
      <point x="476" y="1122" type="curve" smooth="yes"/>
      <point x="573" y="1122"/>
      <point x="621" y="1066"/>
      <point x="621" y="992" type="curve" smooth="yes"/>
      <point x="621" y="890"/>
      <point x="557" y="856"/>
      <point x="401" y="856" type="curve"/>
      <point x="401" y="745" type="line"/>
      <point x="566" y="745"/>
      <point x="649" y="708"/>
      <point x="649" y="589" type="curve" smooth="yes"/>
      <point x="649" y="503"/>
      <point x="586" y="439"/>
      <point x="475" y="439" type="curve" smooth="yes"/>
      <point x="368" y="439"/>
      <point x="316" y="503"/>
      <point x="306" y="607" type="curve"/>
    </contour>
  </outline>
</glyph>
<glyph name="guillemetright" format="1">
  <advance width="1109"/>
  <unicode hex="00BB"/>
  <outline>
    <contour>
      <point x="297" y="963" type="line"/>
      <point x="153" y="963" type="line"/>
      <point x="360" y="553" type="line"/>
      <point x="153" y="143" type="line"/>
      <point x="297" y="143" type="line"/>
      <point x="610" y="554" type="line"/>
    </contour>
    <contour>
      <point x="715" y="963" type="line"/>
      <point x="571" y="963" type="line"/>
      <point x="778" y="553" type="line"/>
      <point x="571" y="143" type="line"/>
      <point x="715" y="143" type="line"/>
      <point x="1028" y="554" type="line"/>
    </contour>
  </outline>
</glyph>
<glyph name="Oslash" format="1">
  <advance width="1439"/>
  <unicode hex="00D8"/>
  <outline>
    <contour>
      <point x="720" y="-19" type="curve" smooth="yes"/>
      <point x="1130" y="-19"/>
      <point x="1366" y="267"/>
      <point x="1366" y="606" type="curve" smooth="yes"/>
      <point x="1366" y="826"/>
      <point x="1269" y="1021"/>
      <point x="1094" y="1133" type="curve"/>
      <point x="1164" y="1251" type="line"/>
      <point x="1056" y="1306" type="line"/>
      <point x="985" y="1187" type="line"/>
      <point x="907" y="1217"/>
      <point x="818" y="1233"/>
      <point x="719" y="1233" type="curve" smooth="yes"/>
      <point x="312" y="1233"/>
      <point x="76" y="952"/>
      <point x="76" y="607" type="curve" smooth="yes"/>
      <point x="76" y="388"/>
      <point x="169" y="194"/>
      <point x="342" y="82" type="curve"/>
      <point x="265" y="-46" type="line"/>
      <point x="373" y="-101" type="line"/>
      <point x="450" y="28" type="line"/>
      <point x="529" y="-2"/>
      <point x="619" y="-19"/>
    </contour>
    <contour>
      <point x="720" y="1075" type="curve" smooth="yes"/>
      <point x="785" y="1075"/>
      <point x="843" y="1060"/>
      <point x="895" y="1035" type="curve"/>
      <point x="444" y="253" type="line"/>
      <point x="362" y="337"/>
      <point x="313" y="463"/>
      <point x="313" y="605" type="curve" smooth="yes"/>
      <point x="313" y="883"/>
      <point x="487" y="1075"/>
    </contour>
    <contour>
      <point x="1127" y="606" type="curve" smooth="yes"/>
      <point x="1127" y="335"/>
      <point x="956" y="141"/>
      <point x="719" y="141" type="curve" smooth="yes"/>
      <point x="653" y="141"/>
      <point x="594" y="155"/>
      <point x="542" y="181" type="curve"/>
      <point x="993" y="965" type="line"/>
      <point x="1078" y="881"/>
      <point x="1127" y="753"/>
    </contour>
    <contour>
      <point x="720" y="1215" type="move"/>
    </contour>
  </outline>
</glyph>
<glyph name="thorn" format="1">
  <advance width="835"/>
  <unicode hex="00FE"/>
  <outline>
    <contour>
      <point x="-100" y="1215" type="line"/>
      <point x="-100" y="1075" type="line"/>
      <point x="47" y="1075" type="line"/>
      <point x="47" y="-186" type="line"/>
      <point x="-96" y="-186" type="line"/>
      <point x="-96" y="-330" type="line"/>
      <point x="245" y="-330" type="line"/>
      <point x="245" y="104" type="line"/>
      <point x="310" y="23"/>
      <point x="424" y="-19"/>
      <point x="535" y="-19" type="curve" smooth="yes"/>
      <point x="762" y="-19"/>
      <point x="939" y="159"/>
      <point x="939" y="433" type="curve" smooth="yes"/>
      <point x="939" y="677"/>
      <point x="781" y="866"/>
      <point x="536" y="866" type="curve" smooth="yes"/>
      <point x="418" y="866"/>
      <point x="331" y="830"/>
      <point x="245" y="750" type="curve"/>
      <point x="245" y="1215" type="line"/>
    </contour>
    <contour>
      <point x="732" y="419" type="curve" smooth="yes"/>
      <point x="732" y="253"/>
      <point x="640" y="137"/>
      <point x="480" y="137" type="curve" smooth="yes"/>
      <point x="357" y="137"/>
      <point x="268" y="228"/>
      <point x="245" y="253" type="curve"/>
      <point x="245" y="587" type="line"/>
      <point x="266" y="613"/>
      <point x="354" y="710"/>
      <point x="479" y="710" type="curve" smooth="yes"/>
      <point x="638" y="710"/>
      <point x="732" y="586"/>
    </contour>
  </outline>
</glyph>
<glyph name="Ccircumflex" format="1">
  <advance width="1337"/>
  <unicode hex="0108"/>
  <outline>
    <contour>
      <point x="581" y="1335" type="line"/>
      <point x="674" y="1565" type="line"/>
      <point x="767" y="1335" type="line"/>
      <point x="915" y="1335" type="line"/>
      <point x="811" y="1610" type="line"/>
      <point x="536" y="1610" type="line"/>
      <point x="438" y="1335" type="line"/>
    </contour>
    <contour>
      <point x="1278" y="358" type="curve"/>
      <point x="1107" y="439" type="line"/>
      <point x="1055" y="230"/>
      <point x="895" y="141"/>
      <point x="718" y="141" type="curve" smooth="yes"/>
      <point x="453" y="141"/>
      <point x="312" y="346"/>
      <point x="312" y="609" type="curve" smooth="yes"/>
      <point x="312" y="878"/>
      <point x="467" y="1074"/>
      <point x="719" y="1074" type="curve" smooth="yes"/>
      <point x="873" y="1074"/>
      <point x="1008" y="1004"/>
      <point x="1087" y="832" type="curve"/>
      <point x="1242" y="832" type="line"/>
      <point x="1242" y="1215" type="line"/>
      <point x="1078" y="1215" type="line"/>
      <point x="1078" y="1089" type="line"/>
      <point x="985" y="1177"/>
      <point x="859" y="1233"/>
      <point x="703" y="1233" type="curve" smooth="yes"/>
      <point x="311" y="1233"/>
      <point x="75" y="976"/>
      <point x="75" y="606" type="curve" smooth="yes"/>
      <point x="75" y="266"/>
      <point x="283" y="-17"/>
      <point x="702" y="-19" type="curve"/>
      <point x="955" y="-17"/>
      <point x="1187" y="68"/>
    </contour>
    <contour>
      <point x="669" y="1215" type="move"/>
    </contour>
    <contour>
      <point x="669" y="0" type="move"/>
    </contour>
    <contour>
      <point x="676" y="1288" type="move"/>
    </contour>
  </outline>
</glyph>
<glyph name="lslash" format="1">
  <advance width="556"/>
  <unicode hex="0142"/>
  <outline>
    <contour>
      <point x="68" y="579" type="line"/>
      <point x="68" y="450" type="line"/>
      <point x="684" y="743" type="line"/>
      <point x="684" y="879" type="line"/>
    </contour>
    <component base="l"/>
  </outline>
</glyph>
<glyph name="Eng" format="1">
  <advance width="2790"/>
  <unicode hex="014A"/>
  <outline>
    <contour>
      <point x="628" y="-340" type="line"/>
      <point x="976" y="-479"/>
      <point x="1290" y="-421"/>
      <point x="1290" y="-43" type="curve" smooth="yes"/>
      <point x="1290" y="89" type="line"/>
      <point x="1093" y="89" type="line"/>
      <point x="1093" y="-52" type="line" smooth="yes"/>
      <point x="1093" y="-292"/>
      <point x="910" y="-284"/>
      <point x="666" y="-202" type="curve"/>
    </contour>
    <contour>
      <point x="125" y="1215" type="line"/>
      <point x="125" y="1075" type="line"/>
      <point x="298" y="1075" type="line"/>
      <point x="298" y="141" type="line"/>
      <point x="125" y="141" type="line"/>
      <point x="125" y="0" type="line"/>
      <point x="631" y="0" type="line"/>
      <point x="631" y="141" type="line"/>
      <point x="461" y="141" type="line"/>
      <point x="461" y="1006" type="line"/>
      <point x="1094" y="0" type="line"/>
      <point x="1290" y="0" type="line"/>
      <point x="1290" y="1075" type="line"/>
      <point x="1468" y="1075" type="line"/>
      <point x="1468" y="1215" type="line"/>
      <point x="957" y="1215" type="line"/>
      <point x="957" y="1075" type="line"/>
      <point x="1126" y="1075" type="line"/>
      <point x="1126" y="321" type="line"/>
      <point x="561" y="1215" type="line"/>
    </contour>
  </outline>
</glyph>
<glyph name="obreve" format="1">
  <advance width="1150"/>
  <unicode hex="014F"/>
  <outline>
    <contour>
      <point x="820" y="424" type="curve" smooth="yes"/>
      <point x="820" y="254"/>
      <point x="726" y="137"/>
      <point x="574" y="137" type="curve" smooth="yes"/>
      <point x="422" y="137"/>
      <point x="328" y="254"/>
      <point x="328" y="423" type="curve" smooth="yes"/>
      <point x="328" y="593"/>
      <point x="420" y="711"/>
      <point x="573" y="711" type="curve" smooth="yes"/>
      <point x="727" y="711"/>
      <point x="820" y="593"/>
    </contour>
    <contour>
      <point x="1027" y="424" type="curve" smooth="yes"/>
      <point x="1027" y="680"/>
      <point x="844" y="866"/>
      <point x="575" y="866" type="curve" smooth="yes"/>
      <point x="311" y="866"/>
      <point x="123" y="683"/>
      <point x="123" y="424" type="curve" smooth="yes"/>
      <point x="123" y="169"/>
      <point x="303" y="-19"/>
      <point x="573" y="-19" type="curve" smooth="yes"/>
      <point x="847" y="-19"/>
      <point x="1027" y="172"/>
    </contour>
    <contour>
      <point x="311" y="1199" type="line"/>
      <point x="322" y="1055"/>
      <point x="429" y="960"/>
      <point x="574" y="960" type="curve" smooth="yes"/>
      <point x="722" y="960"/>
      <point x="825" y="1056"/>
      <point x="839" y="1199" type="curve"/>
      <point x="706" y="1199" type="line"/>
      <point x="696" y="1123"/>
      <point x="645" y="1079"/>
      <point x="574" y="1079" type="curve" smooth="yes"/>
      <point x="498" y="1079"/>
      <point x="453" y="1123"/>
      <point x="440" y="1199" type="curve"/>
    </contour>
    <contour>
      <point x="575" y="849" type="move"/>
    </contour>
    <contour>
      <point x="575" y="849" type="move"/>
    </contour>
  </outline>
</glyph>
<glyph name="oe" format="1">
  <advance width="1715"/>
  <unicode hex="0153"/>
  <outline>
    <contour>
      <point x="966" y="383" type="curve"/>
      <point x="1652" y="383" type="line"/>
      <point x="1652" y="655"/>
      <point x="1507" y="866"/>
      <point x="1225" y="866" type="curve" smooth="yes"/>
      <point x="1077" y="866"/>
      <point x="951" y="801"/>
      <point x="867" y="696" type="curve"/>
      <point x="788" y="801"/>
      <point x="665" y="866"/>
      <point x="515" y="866" type="curve" smooth="yes"/>
      <point x="251" y="866"/>
      <point x="63" y="683"/>
      <point x="63" y="424" type="curve" smooth="yes"/>
      <point x="63" y="169"/>
      <point x="243" y="-19"/>
      <point x="513" y="-19" type="curve" smooth="yes"/>
      <point x="664" y="-19"/>
      <point x="785" y="46"/>
      <point x="864" y="149" type="curve"/>
      <point x="946" y="45"/>
      <point x="1073" y="-19"/>
      <point x="1234" y="-19" type="curve" smooth="yes"/>
      <point x="1407" y="-19"/>
      <point x="1541" y="39"/>
      <point x="1616" y="137" type="curve"/>
      <point x="1508" y="241" type="line"/>
      <point x="1438" y="171"/>
      <point x="1337" y="132"/>
      <point x="1243" y="132" type="curve" smooth="yes"/>
      <point x="1066" y="132"/>
      <point x="976" y="238"/>
    </contour>
    <contour>
      <point x="760" y="424" type="curve" smooth="yes"/>
      <point x="760" y="254"/>
      <point x="666" y="137"/>
      <point x="514" y="137" type="curve" smooth="yes"/>
      <point x="362" y="137"/>
      <point x="268" y="254"/>
      <point x="268" y="423" type="curve" smooth="yes"/>
      <point x="268" y="593"/>
      <point x="360" y="711"/>
      <point x="513" y="711" type="curve" smooth="yes"/>
      <point x="667" y="711"/>
      <point x="760" y="593"/>
    </contour>
    <contour>
      <point x="969" y="501" type="line"/>
      <point x="991" y="634"/>
      <point x="1074" y="721"/>
      <point x="1224" y="721" type="curve" smooth="yes"/>
      <point x="1362" y="721"/>
      <point x="1443" y="628"/>
      <point x="1461" y="501" type="curve"/>
    </contour>
    <contour>
      <point x="858" y="849" type="move"/>
    </contour>
  </outline>
</glyph>
<glyph name="uni0204" format="1">
  <advance width="1369"/>
  <unicode hex="0204"/>
  <outline>
    <contour>
      <point x="1027" y="1075" type="line"/>
      <point x="1027" y="867" type="line"/>
      <point x="1193" y="867" type="line"/>
      <point x="1193" y="1215" type="line"/>
      <point x="154" y="1215" type="line"/>
      <point x="154" y="1075" type="line"/>
      <point x="312" y="1075" type="line"/>
      <point x="312" y="141" type="line"/>
      <point x="154" y="141" type="line"/>
      <point x="154" y="0" type="line"/>
      <point x="1195" y="0" type="line"/>
      <point x="1195" y="355" type="line"/>
      <point x="1029" y="355" type="line"/>
      <point x="1029" y="141" type="line"/>
      <point x="531" y="141" type="line"/>
      <point x="531" y="547" type="line"/>
      <point x="858" y="547" type="line"/>
      <point x="858" y="434" type="line"/>
      <point x="960" y="434" type="line"/>
      <point x="960" y="812" type="line"/>
      <point x="858" y="812" type="line"/>
      <point x="858" y="696" type="line"/>
      <point x="530" y="696" type="line"/>
      <point x="530" y="1075" type="line"/>
    </contour>
    <contour>
      <point x="671" y="1215" type="move"/>
    </contour>
    <contour>
      <point x="671" y="0" type="move"/>
    </contour>
    <contour>
      <point x="1139" y="10" type="move"/>
    </contour>
  </outline>
</glyph>
<glyph name="uni0209" format="1">
  <advance width="637"/>
  <unicode hex="0209"/>
  <outline>
    <contour>
      <point x="225" y="709" type="line"/>
      <point x="225" y="140" type="line"/>
      <point x="88" y="140" type="line"/>
      <point x="88" y="0" type="line"/>
      <point x="558" y="0" type="line"/>
      <point x="558" y="140" type="line"/>
      <point x="421" y="140" type="line"/>
      <point x="421" y="849" type="line"/>
      <point x="88" y="849" type="line"/>
      <point x="88" y="709" type="line"/>
    </contour>
    <contour>
      <point x="307" y="849" type="move"/>
    </contour>
    <contour>
      <point x="535" y="10" type="move"/>
    </contour>
  </outline>
</glyph>
<glyph name="ring" format="1">
  <advance width="499"/>
  <unicode hex="02DA"/>
  <outline>
    <contour>
      <point x="133" y="1244"/>
      <point x="67" y="1166"/>
      <point x="67" y="1078" type="curve" smooth="yes"/>
      <point x="67" y="988"/>
      <point x="135" y="906"/>
      <point x="249" y="906" type="curve" smooth="yes"/>
      <point x="363" y="906"/>
      <point x="432" y="988"/>
      <point x="432" y="1078" type="curve" smooth="yes"/>
      <point x="432" y="1166"/>
      <point x="366" y="1244"/>
      <point x="249" y="1244" type="curve" smooth="yes"/>
    </contour>
    <contour>
      <point x="183" y="977"/>
      <point x="146" y="1024"/>
      <point x="146" y="1076" type="curve" smooth="yes"/>
      <point x="146" y="1128"/>
      <point x="183" y="1175"/>
      <point x="249" y="1175" type="curve" smooth="yes"/>
      <point x="315" y="1175"/>
      <point x="353" y="1128"/>
      <point x="353" y="1076" type="curve" smooth="yes"/>
      <point x="353" y="1024"/>
      <point x="315" y="977"/>
      <point x="249" y="977" type="curve" smooth="yes"/>
    </contour>
    <contour>
      <point x="249" y="849" type="move" name="_top"/>
    </contour>
  </outline>
</glyph>
<glyph name="ogonek" format="1">
  <advance width="487"/>
  <unicode hex="02DB"/>
  <outline>
    <contour>
      <point x="184" y="0" type="line"/>
      <point x="136" y="-77"/>
      <point x="124" y="-125"/>
      <point x="124" y="-177" type="curve" smooth="yes"/>
      <point x="124" y="-281"/>
      <point x="200" y="-353"/>
      <point x="304" y="-353" type="curve" smooth="yes"/>
      <point x="351" y="-353"/>
      <point x="383" y="-343"/>
      <point x="438" y="-316" type="curve"/>
      <point x="438" y="-213" type="line"/>
      <point x="406" y="-228"/>
      <point x="382" y="-233"/>
      <point x="351" y="-233" type="curve" smooth="yes"/>
      <point x="286" y="-233"/>
      <point x="253" y="-197"/>
      <point x="253" y="-126" type="curve" smooth="yes"/>
      <point x="253" y="-83"/>
      <point x="263" y="-48"/>
      <point x="298" y="0" type="curve"/>
    </contour>
    <contour>
      <point x="234" y="-19" type="move" name="_ogonek"/>
    </contour>
  </outline>
</glyph>
<glyph name="tilde" format="1">
  <advance width="635"/>
  <unicode hex="02DC"/>
  <outline>
    <contour>
      <point x="131" y="973" type="line"/>
      <point x="137" y="1012"/>
      <point x="150" y="1033"/>
      <point x="185" y="1033" type="curve" smooth="yes"/>
      <point x="254" y="1033"/>
      <point x="340" y="964"/>
      <point x="441" y="964" type="curve" smooth="yes"/>
      <point x="539" y="964"/>
      <point x="599" y="1045"/>
      <point x="608" y="1177" type="curve"/>
      <point x="502" y="1177" type="line"/>
      <point x="494" y="1136"/>
      <point x="477" y="1115"/>
      <point x="446" y="1115" type="curve" smooth="yes"/>
      <point x="375" y="1115"/>
      <point x="281" y="1182"/>
      <point x="187" y="1182" type="curve" smooth="yes"/>
      <point x="106" y="1182"/>
      <point x="34" y="1120"/>
      <point x="23" y="973" type="curve"/>
    </contour>
    <contour>
      <point x="329" y="849" type="move" name="_top"/>
    </contour>
  </outline>
</glyph>
<glyph name="fraction" format="1">
  <advance width="708"/>
  <unicode hex="2044"/>
  <outline>
    <contour>
      <point x="14" y="-6" type="line"/>
      <point x="122" y="-35" type="line"/>
      <point x="695" y="1217" type="line"/>
      <point x="588" y="1246" type="line"/>
    </contour>
  </outline>
</glyph>
<glyph name="euro" format="1">
  <advance width="1412"/>
  <unicode hex="20AC"/>
  <outline>
    <contour>
      <point x="780" y="806" type="line"/>
      <point x="492" y="806" type="line"/>
      <point x="536" y="968"/>
      <point x="641" y="1075"/>
      <point x="788" y="1075" type="curve" smooth="yes"/>
      <point x="915" y="1075"/>
      <point x="1023" y="1005"/>
      <point x="1088" y="832" type="curve"/>
      <point x="1243" y="832" type="line"/>
      <point x="1243" y="1215" type="line"/>
      <point x="1080" y="1215" type="line"/>
      <point x="1080" y="1097" type="line"/>
      <point x="1006" y="1173"/>
      <point x="901" y="1233"/>
      <point x="759" y="1233" type="curve" smooth="yes"/>
      <point x="492" y="1233"/>
      <point x="312" y="1057"/>
      <point x="252" y="806" type="curve"/>
      <point x="81" y="806" type="line"/>
      <point x="81" y="683" type="line"/>
      <point x="233" y="683" type="line"/>
      <point x="230" y="657"/>
      <point x="230" y="632"/>
      <point x="230" y="606" type="curve" smooth="yes"/>
      <point x="230" y="590"/>
      <point x="231" y="564"/>
      <point x="232" y="549" type="curve"/>
      <point x="81" y="549" type="line"/>
      <point x="81" y="426" type="line"/>
      <point x="250" y="426" type="line"/>
      <point x="306" y="170"/>
      <point x="481" y="-17"/>
      <point x="778" y="-19" type="curve"/>
      <point x="998" y="-17"/>
      <point x="1199" y="68"/>
      <point x="1280" y="358" type="curve"/>
      <point x="1108" y="439" type="line"/>
      <point x="1067" y="230"/>
      <point x="934" y="141"/>
      <point x="787" y="141" type="curve" smooth="yes"/>
      <point x="629" y="141"/>
      <point x="530" y="257"/>
      <point x="489" y="426" type="curve"/>
      <point x="780" y="426" type="line"/>
      <point x="780" y="549" type="line"/>
      <point x="469" y="549" type="line"/>
      <point x="467" y="564"/>
      <point x="467" y="593"/>
      <point x="467" y="609" type="curve" smooth="yes"/>
      <point x="467" y="634"/>
      <point x="468" y="659"/>
      <point x="470" y="683" type="curve"/>
      <point x="780" y="683" type="line"/>
    </contour>
  </outline>
</glyph>
<glyph name="emptyset" format="1">
  <advance width="1540"/>
  <unicode hex="2205"/>
  <outline>
    <contour>
      <point x="1388" y="1215" type="line"/>
      <point x="1305" y="1272" type="line"/>
      <point x="1166" y="1110" type="line"/>
      <point x="1056" y="1189"/>
      <point x="918" y="1233"/>
      <point x="769" y="1233" type="curve" smooth="yes"/>
      <point x="416" y="1233"/>
      <point x="124" y="986"/>
      <point x="124" y="606" type="curve" smooth="yes"/>
      <point x="124" y="410"/>
      <point x="202" y="249"/>
      <point x="327" y="140" type="curve"/>
      <point x="199" y="-9" type="line"/>
      <point x="266" y="-74" type="line"/>
      <point x="403" y="83" type="line"/>
      <point x="507" y="17"/>
      <point x="634" y="-19"/>
      <point x="769" y="-19" type="curve" smooth="yes"/>
      <point x="1123" y="-19"/>
      <point x="1416" y="227"/>
      <point x="1416" y="606" type="curve" smooth="yes"/>
      <point x="1416" y="787"/>
      <point x="1349" y="938"/>
      <point x="1241" y="1046" type="curve"/>
    </contour>
    <contour>
      <point x="262" y="918"/>
      <point x="490" y="1125"/>
      <point x="769" y="1125" type="curve" smooth="yes"/>
      <point x="889" y="1125"/>
      <point x="999" y="1087"/>
      <point x="1086" y="1018" type="curve"/>
      <point x="408" y="233" type="line"/>
      <point x="318" y="322"/>
      <point x="262" y="450"/>
      <point x="262" y="603" type="curve" smooth="yes"/>
    </contour>
    <contour>
      <point x="662" y="89"/>
      <point x="563" y="119"/>
      <point x="481" y="173" type="curve"/>
      <point x="1157" y="950" type="line"/>
      <point x="1232" y="861"/>
      <point x="1277" y="742"/>
      <point x="1277" y="603" type="curve" smooth="yes"/>
      <point x="1277" y="293"/>
      <point x="1048" y="89"/>
      <point x="769" y="89" type="curve" smooth="yes"/>
    </contour>
  </outline>
</glyph>
<glyph name="uni2206" format="1">
  <advance width="1158"/>
  <unicode hex="2206"/>
  <outline>
    <contour>
      <point x="525" y="1014" type="curve"/>
      <point x="543" y="934"/>
      <point x="817" y="130"/>
      <point x="817" y="130" type="curve"/>
      <point x="230" y="130" type="line"/>
      <point x="230" y="130"/>
      <point x="508" y="935"/>
    </contour>
    <contour>
      <point x="702" y="1170" type="line"/>
      <point x="468" y="1170" type="line"/>
      <point x="84" y="106" type="line"/>
      <point x="84" y="0" type="line"/>
      <point x="1070" y="0" type="line"/>
      <point x="1070" y="118" type="line"/>
    </contour>
  </outline>
</glyph>
<glyph name="product" format="1">
  <advance width="1222"/>
  <unicode hex="220F"/>
  <outline>
    <contour>
      <point x="657" y="0" type="line"/>
      <point x="1089" y="0" type="line"/>
      <point x="1089" y="67" type="line"/>
      <point x="1036" y="67" type="line" smooth="yes"/>
      <point x="1002" y="67"/>
      <point x="976" y="75"/>
      <point x="973" y="142" type="curve"/>
      <point x="973" y="1068" type="line" smooth="yes"/>
      <point x="973" y="1139"/>
      <point x="1002" y="1149"/>
      <point x="1036" y="1149" type="curve" smooth="yes"/>
      <point x="1089" y="1149" type="line"/>
      <point x="1089" y="1215" type="line"/>
      <point x="135" y="1215" type="line"/>
      <point x="135" y="1149" type="line"/>
      <point x="187" y="1149" type="line" smooth="yes"/>
      <point x="220" y="1149"/>
      <point x="249" y="1139"/>
      <point x="251" y="1072" type="curve"/>
      <point x="251" y="148" type="line" smooth="yes"/>
      <point x="251" y="77"/>
      <point x="224" y="67"/>
      <point x="187" y="67" type="curve" smooth="yes"/>
      <point x="135" y="67" type="line"/>
      <point x="135" y="0" type="line"/>
      <point x="566" y="0" type="line"/>
      <point x="566" y="67" type="line"/>
      <point x="513" y="67" type="line" smooth="yes"/>
      <point x="477" y="67"/>
      <point x="449" y="77"/>
      <point x="449" y="148" type="curve" smooth="yes"/>
      <point x="449" y="1139" type="line"/>
      <point x="775" y="1139" type="line"/>
      <point x="775" y="148" type="line" smooth="yes"/>
      <point x="775" y="77"/>
      <point x="747" y="67"/>
      <point x="711" y="67" type="curve" smooth="yes"/>
      <point x="657" y="67" type="line"/>
    </contour>
  </outline>
</glyph>
<glyph name="minus" format="1">
  <advance width="930"/>
  <unicode hex="2212"/>
  <outline>
    <contour>
      <point x="56" y="863" type="line"/>
      <point x="56" y="722" type="line"/>
      <point x="876" y="722" type="line"/>
      <point x="876" y="863" type="line"/>
    </contour>
  </outline>
</glyph>
<glyph name="ffi" format="1">
  <advance width="1741"/>
  <outline>
    <contour>
      <point x="1471" y="1227" type="curve" smooth="yes"/>
      <point x="1408" y="1227"/>
      <point x="1358" y="1179"/>
      <point x="1358" y="1119" type="curve" smooth="yes"/>
      <point x="1358" y="1058"/>
      <point x="1408" y="1011"/>
      <point x="1471" y="1011" type="curve" smooth="yes"/>
      <point x="1536" y="1011"/>
      <point x="1586" y="1058"/>
      <point x="1586" y="1119" type="curve" smooth="yes"/>
      <point x="1586" y="1179"/>
      <point x="1536" y="1227"/>
    </contour>
    <contour>
      <point x="1374" y="709" type="line"/>
      <point x="1374" y="141" type="line"/>
      <point x="1247" y="141" type="line"/>
      <point x="1247" y="0" type="line"/>
      <point x="1707" y="0" type="line"/>
      <point x="1707" y="141" type="line"/>
      <point x="1570" y="141" type="line"/>
      <point x="1570" y="849" type="line"/>
      <point x="971" y="849" type="line"/>
      <point x="971" y="948" type="line" smooth="yes"/>
      <point x="971" y="1054"/>
      <point x="992" y="1096"/>
      <point x="1050" y="1096" type="curve" smooth="yes"/>
      <point x="1085" y="1096"/>
      <point x="1120" y="1073"/>
      <point x="1120" y="1009" type="curve"/>
      <point x="1275" y="1009" type="line"/>
      <point x="1275" y="1189"/>
      <point x="1161" y="1233"/>
      <point x="1043" y="1233" type="curve" smooth="yes"/>
      <point x="847" y="1233"/>
      <point x="773" y="1119"/>
      <point x="773" y="951" type="curve" smooth="yes"/>
      <point x="773" y="849" type="line"/>
      <point x="387" y="849" type="line"/>
      <point x="387" y="948" type="line" smooth="yes"/>
      <point x="387" y="1054"/>
      <point x="408" y="1096"/>
      <point x="466" y="1096" type="curve" smooth="yes"/>
      <point x="501" y="1096"/>
      <point x="536" y="1073"/>
      <point x="536" y="1009" type="curve"/>
      <point x="691" y="1009" type="line"/>
      <point x="691" y="1189"/>
      <point x="577" y="1233"/>
      <point x="459" y="1233" type="curve" smooth="yes"/>
      <point x="263" y="1233"/>
      <point x="189" y="1119"/>
      <point x="189" y="951" type="curve" smooth="yes"/>
      <point x="189" y="849" type="line"/>
      <point x="59" y="849" type="line"/>
      <point x="59" y="709" type="line"/>
      <point x="189" y="709" type="line"/>
      <point x="189" y="141" type="line"/>
      <point x="63" y="141" type="line"/>
      <point x="63" y="0" type="line"/>
      <point x="524" y="0" type="line"/>
      <point x="524" y="141" type="line"/>
      <point x="387" y="141" type="line"/>
      <point x="387" y="709" type="line"/>
      <point x="773" y="709" type="line"/>
      <point x="773" y="141" type="line"/>
      <point x="647" y="141" type="line"/>
      <point x="647" y="0" type="line"/>
      <point x="1129" y="0" type="line"/>
      <point x="1129" y="141" type="line"/>
      <point x="971" y="141" type="line"/>
      <point x="971" y="709" type="line"/>
    </contour>
  </outline>
</glyph>
